<svg xmlns="http://www.w3.org/2000/svg" viewBox="0 0 200 200" width="200" height="200">
  <defs>
    <linearGradient id="bg" x1="0%" y1="0%" x2="100%" y2="100%">
      <stop offset="0%" style="stop-color:#059669;stop-opacity:1" />
      <stop offset="100%" style="stop-color:#10b981;stop-opacity:1" />
    </linearGradient>
  </defs>
  <!-- Background circle -->
  <circle cx="100" cy="100" r="95" fill="url(#bg)" />
  <!-- Gear outer -->
  <g transform="translate(100,72)">
    <path d="M0-28 L5-26 L7-20 L14-18 L18-23 L23-18 L18-14 L20-7 L26-5 L28 0 L26 5 L20 7 L18 14 L23 18 L18 23 L14 18 L7 20 L5 26 L0 28 L-5 26 L-7 20 L-14 18 L-18 23 L-23 18 L-18 14 L-20 7 L-26 5 L-28 0 L-26-5 L-20-7 L-18-14 L-23-18 L-18-23 L-14-18 L-7-20 L-5-26Z" fill="#d1fae5" opacity="0.9"/>
    <circle cx="0" cy="0" r="14" fill="url(#bg)"/>
    <circle cx="0" cy="0" r="10" fill="#d1fae5" opacity="0.3"/>
  </g>
  <!-- Server rack lines -->
  <rect x="60" y="52" width="12" height="4" rx="1" fill="#d1fae5" opacity="0.6"/>
  <rect x="128" y="52" width="12" height="4" rx="1" fill="#d1fae5" opacity="0.6"/>
  <rect x="60" y="84" width="12" height="4" rx="1" fill="#d1fae5" opacity="0.6"/>
  <rect x="128" y="84" width="12" height="4" rx="1" fill="#d1fae5" opacity="0.6"/>
  <!-- Pulse/monitoring line -->
  <polyline points="45,108 55,108 60,98 68,118 76,100 82,112 88,105 95,108 105,108 110,96 118,120 126,100 132,110 138,104 145,108 155,108" fill="none" stroke="#d1fae5" stroke-width="2.5" stroke-linecap="round" stroke-linejoin="round" opacity="0.9"/>
  <!-- Text -->
  <text x="100" y="142" text-anchor="middle" font-family="system-ui, sans-serif" font-weight="700" font-size="24" fill="white">LLMOps</text>
  <text x="100" y="162" text-anchor="middle" font-family="system-ui, sans-serif" font-weight="400" font-size="10" fill="#d1fae5" letter-spacing="2">DEPLOY · MONITOR · SCALE</text>
</svg>
